<?xml version="1.0" encoding="UTF-8"?>
<svg width="23px" height="18px" viewBox="0 0 23 18" version="1.1" xmlns="http://www.w3.org/2000/svg" xmlns:xlink="http://www.w3.org/1999/xlink">
    <title>asana</title>
    <defs>
        <linearGradient x1="50%" y1="0%" x2="50%" y2="100%" id="linearGradient-1">
            <stop stop-color="#98D888" offset="0%"></stop>
            <stop stop-color="#5FAF50" offset="100%"></stop>
        </linearGradient>
        <linearGradient x1="50%" y1="0%" x2="50%" y2="100%" id="linearGradient-2">
            <stop stop-color="#98D888" offset="0%"></stop>
            <stop stop-color="#5FAF50" offset="100%"></stop>
        </linearGradient>
    </defs>
    <g id="web-shopping" stroke="none" stroke-width="1" fill="none" fill-rule="evenodd">
        <g id="Group-19">
            <ellipse id="Oval" fill="url(#linearGradient-1)" cx="11.7257143" cy="2.15910037" rx="2.11591837" ry="2.15910037"></ellipse>
            <path d="M1.8005336,7.02765198 L9.1211984,7.02765198 L9.1211984,7.02765198 L9.1211984,11.6150186 L1.1617686,15.1020922 C0.512142881,15.3866971 0.201933548,16.1324684 0.458075402,16.7938343 C0.698056296,17.4134722 1.39491497,17.7212449 2.01455281,17.481264 C2.03428481,17.473622 2.05381177,17.4654607 2.07311332,17.4567888 L10.6520116,13.6023885 L10.6520116,13.6023885 L15.4196819,13.6023885 L15.5091572,16.7621153 C15.5283063,17.4383461 16.0820166,17.9765987 16.7585185,17.9765987 C17.429528,17.9765987 17.9734887,17.432638 17.9734887,16.7616285 L17.9734887,13.1860171 C17.9734887,12.0814476 17.0780582,11.1860171 15.9734887,11.1860171 L14.2741442,11.1860171 L14.2741442,11.1860171 L14.2741442,7.02765198 L21.4594363,7.02765198 C21.9834037,7.02765198 22.4081633,6.60289244 22.4081633,6.078925 L22.4081633,6.078925 L22.4081633,6.078925 C22.4081633,5.62603018 22.0410195,5.25888639 21.5881247,5.25888639 L1.8005336,5.25888639 C1.31210247,5.25888639 0.916150803,5.65483806 0.916150803,6.14326919 C0.916150803,6.63170032 1.31210247,7.02765198 1.8005336,7.02765198 Z" id="Path-5" fill="url(#linearGradient-2)"></path>
        </g>
    </g>
</svg>