<?xml version="1.0" encoding="UTF-8"?>
<svg width="19px" height="15px" viewBox="0 0 19 15" version="1.1" xmlns="http://www.w3.org/2000/svg" xmlns:xlink="http://www.w3.org/1999/xlink">
    <title>barcode</title>
    <defs>
        <linearGradient x1="50%" y1="0%" x2="50%" y2="100%" id="linearGradient-1">
            <stop stop-color="#4E4E4E" offset="0%"></stop>
            <stop stop-color="#4E4F4D" stop-opacity="0.85" offset="100%"></stop>
        </linearGradient>
    </defs>
    <g id="web-shopping" stroke="none" stroke-width="1" fill="none" fill-rule="evenodd">
        <g id="barcode" transform="translate(0.000000, -2.000000)" fill-rule="nonzero">
            <rect id="Rectangle" fill="#000000" opacity="0" x="0" y="0" width="18.9551" height="15.0684"></rect>
            <path d="M6.21724894e-14,17 L1.5918,17 L1.5918,2 L6.21724894e-14,2 L6.21724894e-14,17 Z M3.13477,17 L4.04297,17 L4.04297,2 L3.13477,2 L3.13477,17 Z M5.56641,17 L8.16406,17 L8.16406,2 L5.56641,2 L5.56641,17 Z M9.11133,17 L10.7715,17 L10.7715,2 L9.11133,2 L9.11133,17 Z M11.7578,17 L14.3359,17 L14.3359,2 L11.7578,2 L11.7578,17 Z M15.127,17 L17.1484,17 L17.1484,2 L15.127,2 L15.127,17 Z M17.6465,17 L18.9551,17 L18.9551,2 L17.6465,2 L17.6465,17 Z" id="Shape" fill="url(#linearGradient-1)"></path>
        </g>
    </g>
</svg>