<?xml version="1.0" encoding="UTF-8"?>
<svg width="24px" height="22px" viewBox="0 0 24 22" version="1.1" xmlns="http://www.w3.org/2000/svg" xmlns:xlink="http://www.w3.org/1999/xlink">
    <title>calendar.badge.clock</title>
    <g id="icon" stroke="none" stroke-width="1" fill="none" fill-rule="evenodd">
        <g id="calendar.badge.clock" fill="#5FAF50" fill-rule="nonzero">
            <rect id="Rectangle" opacity="0" x="0" y="0" width="23.6523" height="21.6699"></rect>
            <path d="M3.06641,19.834 L13.2324,19.834 C12.9492,19.3457 12.7344,18.8184 12.5977,18.2617 L2.91992,18.2617 C2.05078,18.2617 1.57227,17.8027 1.57227,16.8945 L1.57227,7.68555 C1.57227,6.78711 2.05078,6.31836 2.91992,6.31836 L16.5332,6.31836 C17.4023,6.31836 17.8906,6.78711 17.8906,7.68555 L17.8906,10.459 C18.1738,10.4297 18.4277,10.4102 18.6914,10.4102 C18.9453,10.4102 19.209,10.4297 19.4629,10.459 L19.4629,4.88281 C19.4629,2.87109 18.4473,1.85547 16.4062,1.85547 L3.06641,1.85547 C1.02539,1.85547 0,2.86133 0,4.88281 L0,16.8066 C0,18.8281 1.02539,19.834 3.06641,19.834 Z M7.82227,9.82422 L8.39844,9.82422 C8.74023,9.82422 8.85742,9.72656 8.85742,9.38477 L8.85742,8.80859 C8.85742,8.4668 8.74023,8.35938 8.39844,8.35938 L7.82227,8.35938 C7.48047,8.35938 7.36328,8.4668 7.36328,8.80859 L7.36328,9.38477 C7.36328,9.72656 7.48047,9.82422 7.82227,9.82422 Z M11.0742,9.82422 L11.6406,9.82422 C11.9824,9.82422 12.0996,9.72656 12.0996,9.38477 L12.0996,8.80859 C12.0996,8.4668 11.9824,8.35938 11.6406,8.35938 L11.0742,8.35938 C10.7227,8.35938 10.6152,8.4668 10.6152,8.80859 L10.6152,9.38477 C10.6152,9.72656 10.7227,9.82422 11.0742,9.82422 Z M14.3164,9.82422 L14.8926,9.82422 C15.2344,9.82422 15.3418,9.72656 15.3418,9.38477 L15.3418,8.80859 C15.3418,8.4668 15.2344,8.35938 14.8926,8.35938 L14.3164,8.35938 C13.9746,8.35938 13.8574,8.4668 13.8574,8.80859 L13.8574,9.38477 C13.8574,9.72656 13.9746,9.82422 14.3164,9.82422 Z M4.58008,13.0176 L5.15625,13.0176 C5.49805,13.0176 5.60547,12.9199 5.60547,12.5781 L5.60547,12.002 C5.60547,11.6602 5.49805,11.5625 5.15625,11.5625 L4.58008,11.5625 C4.23828,11.5625 4.12109,11.6602 4.12109,12.002 L4.12109,12.5781 C4.12109,12.9199 4.23828,13.0176 4.58008,13.0176 Z M7.82227,13.0176 L8.39844,13.0176 C8.74023,13.0176 8.85742,12.9199 8.85742,12.5781 L8.85742,12.002 C8.85742,11.6602 8.74023,11.5625 8.39844,11.5625 L7.82227,11.5625 C7.48047,11.5625 7.36328,11.6602 7.36328,12.002 L7.36328,12.5781 C7.36328,12.9199 7.48047,13.0176 7.82227,13.0176 Z M11.0742,13.0176 L11.6406,13.0176 C11.9824,13.0176 12.0996,12.9199 12.0996,12.5781 L12.0996,12.002 C12.0996,11.6602 11.9824,11.5625 11.6406,11.5625 L11.0742,11.5625 C10.7227,11.5625 10.6152,11.6602 10.6152,12.002 L10.6152,12.5781 C10.6152,12.9199 10.7227,13.0176 11.0742,13.0176 Z M4.58008,16.2207 L5.15625,16.2207 C5.49805,16.2207 5.60547,16.1133 5.60547,15.7715 L5.60547,15.1953 C5.60547,14.8535 5.49805,14.7559 5.15625,14.7559 L4.58008,14.7559 C4.23828,14.7559 4.12109,14.8535 4.12109,15.1953 L4.12109,15.7715 C4.12109,16.1133 4.23828,16.2207 4.58008,16.2207 Z M7.82227,16.2207 L8.39844,16.2207 C8.74023,16.2207 8.85742,16.1133 8.85742,15.7715 L8.85742,15.1953 C8.85742,14.8535 8.74023,14.7559 8.39844,14.7559 L7.82227,14.7559 C7.48047,14.7559 7.36328,14.8535 7.36328,15.1953 L7.36328,15.7715 C7.36328,16.1133 7.48047,16.2207 7.82227,16.2207 Z M11.0742,16.2207 L11.6406,16.2207 C11.9824,16.2207 12.0996,16.1133 12.0996,15.7715 L12.0996,15.1953 C12.0996,14.8535 11.9824,14.7559 11.6406,14.7559 L11.0742,14.7559 C10.7227,14.7559 10.6152,14.8535 10.6152,15.1953 L10.6152,15.7715 C10.6152,16.1133 10.7227,16.2207 11.0742,16.2207 Z" id="Shape"></path>
            <path d="M18.6914,11.748 C21.4062,11.748 23.6523,13.9844 23.6523,16.709 C23.6523,19.4238 21.377,21.6699 18.6914,21.6699 C15.9668,21.6699 13.7305,19.4434 13.7305,16.709 C13.7305,13.9941 15.9668,11.748 18.6914,11.748 Z M18.7402,13.2324 C18.4082,13.2324 18.1348,13.4961 18.1348,13.8184 L18.1348,16.2695 L16.377,16.2695 C16.0449,16.2695 15.7617,16.543 15.7617,16.8652 C15.7617,17.1973 16.0352,17.4707 16.377,17.4707 L18.7402,17.4707 C19.082,17.4707 19.3457,17.207 19.3457,16.8652 L19.3457,13.8184 C19.3457,13.4961 19.0723,13.2324 18.7402,13.2324 Z" id="Combined-Shape"></path>
        </g>
    </g>
</svg>