<?xml version="1.0" encoding="UTF-8"?>
<svg width="19px" height="19px" viewBox="0 0 19 19" version="1.1" xmlns="http://www.w3.org/2000/svg" xmlns:xlink="http://www.w3.org/1999/xlink">
    <title>calendar.badge.exclamationmark</title>
    <g id="icon" stroke="none" stroke-width="1" fill="none" fill-rule="evenodd">
        <g id="calendar.badge.exclamationmark" fill="#4D5458" fill-rule="nonzero">
            <path d="M2.99347939,18 L10.3375387,18 C10.0610743,17.5111169 9.24477877,16.9831872 9.11133,16.4258224 L2.85047346,16.4258224 C2.00200484,16.4258224 1.53487558,15.9662742 1.53487558,15.0569896 L1.53487558,5.83704229 C1.53487558,4.93752938 2.00200484,4.46821959 2.85047346,4.46821959 L16.1399791,4.46821959 C16.9884087,4.46821959 17.4650951,4.93752938 17.4650951,5.83704229 L17.4650951,9.84842178 C17.7129564,9.84842178 18.7072387,11.7205819 18.9551,11.7499169 L19,3.03095526 C19,1.01683286 18.0085547,0 16.0159997,0 L2.99347939,0 C1.00100242,0 0,1.0070612 0,3.03095526 L0,14.9689847 C0,16.9928988 1.00100242,18 2.99347939,18 Z M7.30719344,8 L7.69281326,8 C7.92156692,8 8,7.9333306 8,7.70000137 L8,7.30666148 C8,7.07333224 7.92156692,7 7.69281326,7 L7.30719344,7 C7.07843308,7 7,7.07333224 7,7.30666148 L7,7.70000137 C7,7.9333306 7.07843308,8 7.30719344,8 Z M11.3092158,8 L11.6907842,8 C11.9210455,8 12,7.9333306 12,7.70000137 L12,7.30666148 C12,7.07333224 11.9210455,7 11.6907842,7 L11.3092158,7 C11.0724198,7 11,7.07333224 11,7.30666148 L11,7.70000137 C11,7.9333306 11.0724198,8 11.3092158,8 Z M14.3092158,8 L14.6973861,8 C14.9276475,8 15,7.9333306 15,7.70000137 L15,7.30666148 C15,7.07333224 14.9276475,7 14.6973861,7 L14.3092158,7 C14.0789545,7 14,7.07333224 14,7.30666148 L14,7.70000137 C14,7.9333306 14.0789545,8 14.3092158,8 Z M4.30921327,11 L4.6973686,11 C4.92763309,11 5,10.9328568 5,10.6979589 L5,10.3020411 C5,10.0671432 4.92763309,10 4.6973686,10 L4.30921327,10 C4.07894879,10 4,10.0671432 4,10.3020411 L4,10.6979589 C4,10.9328568 4.07894879,11 4.30921327,11 Z M7.30719344,11 L7.69281326,11 C7.92156692,11 8,10.9328568 8,10.6979589 L8,10.3020411 C8,10.0671432 7.92156692,10 7.69281326,10 L7.30719344,10 C7.07843308,10 7,10.0671432 7,10.3020411 L7,10.6979589 C7,10.9328568 7.07843308,11 7.30719344,11 Z M11.3092158,11 L11.6907842,11 C11.9210455,11 12,10.9328568 12,10.6979589 L12,10.3020411 C12,10.0671432 11.9210455,10 11.6907842,10 L11.3092158,10 C11.0724198,10 11,10.0671432 11,10.3020411 L11,10.6979589 C11,10.9328568 11.0724198,11 11.3092158,11 Z M4.30921327,14 L4.6973686,14 C4.92763309,14 5,13.9266794 5,13.693337 L5,13.2999727 C5,13.0666303 4.92763309,13 4.6973686,13 L4.30921327,13 C4.07894879,13 4,13.0666303 4,13.2999727 L4,13.693337 C4,13.9266794 4.07894879,14 4.30921327,14 Z M7.30719344,14 L7.69281326,14 C7.92156692,14 8,13.9266794 8,13.693337 L8,13.2999727 C8,13.0666303 7.92156692,13 7.69281326,13 L7.30719344,13 C7.07843308,13 7,13.0666303 7,13.2999727 L7,13.693337 C7,13.9266794 7.07843308,14 7.30719344,14 Z M11.3092158,14 L11.6907842,14 C11.9210455,14 12,13.9266794 12,13.693337 L12,13.2999727 C12,13.0666303 11.9210455,13 11.6907842,13 L11.3092158,13 C11.0724198,13 11,13.0666303 11,13.2999727 L11,13.693337 C11,13.9266794 11.0724198,14 11.3092158,14 Z" id="Shape"></path>
            <path d="M13.6914,8.748 C16.4062,8.748 18.6523,10.9844 18.6523,13.709 C18.6523,16.4238 16.377,18.6699 13.6914,18.6699 C10.9668,18.6699 8.7305,16.4434 8.7305,13.709 C8.7305,10.9941 10.9668,8.748 13.6914,8.748 Z M13.6914,15.2227 C13.2422,15.2227 12.8613,15.6035 12.8613,16.0527 C12.8613,16.5117 13.2422,16.873 13.6914,16.873 C14.1406,16.873 14.5117,16.5117 14.5117,16.0527 C14.5117,15.6035 14.1504,15.2227 13.6914,15.2227 Z M13.6914,10.5156 C13.2812,10.5156 13.0078,10.7891 13.0176,11.1895 L13.0957,13.9824 C13.1055,14.3145 13.3496,14.5488 13.6914,14.5488 C14.0332,14.5488 14.2676,14.3145 14.2773,13.9824 L14.3652,11.1895 C14.375,10.7891 14.1016,10.5156 13.6914,10.5156 Z" id="Combined-Shape"></path>
        </g>
    </g>
</svg>