<?xml version="1.0" encoding="UTF-8"?>
<svg width="20px" height="18px" viewBox="0 0 20 18" version="1.1" xmlns="http://www.w3.org/2000/svg" xmlns:xlink="http://www.w3.org/1999/xlink">
    <title>calendar</title>
    <defs>
        <linearGradient x1="50%" y1="0%" x2="50%" y2="100%" id="linearGradient-1">
            <stop stop-color="#5FAF50" stop-opacity="0.85" offset="0%"></stop>
            <stop stop-color="#98D888" stop-opacity="0.85" offset="100%"></stop>
        </linearGradient>
    </defs>
    <g id="web-shopping" stroke="none" stroke-width="1" fill="none" fill-rule="evenodd">
        <g id="calendar" fill-rule="nonzero">
            <rect id="Rectangle" fill="#000000" opacity="0" x="0" y="0" width="19.4629" height="17.998"></rect>
            <path d="M3.06641,17.998 L16.4062,17.998 C18.4473,17.998 19.4629,16.9824 19.4629,14.9707 L19.4629,3.04688 C19.4629,1.03516 18.4473,0.0195312 16.4062,0.0195312 L3.06641,0.0195312 C1.02539,0.0195312 0,1.02539 0,3.04688 L0,14.9707 C0,16.9922 1.02539,17.998 3.06641,17.998 Z M2.91992,16.4258 C2.05078,16.4258 1.57227,15.9668 1.57227,15.0586 L1.57227,5.84961 C1.57227,4.95117 2.05078,4.48242 2.91992,4.48242 L16.5332,4.48242 C17.4023,4.48242 17.8906,4.95117 17.8906,5.84961 L17.8906,15.0586 C17.8906,15.9668 17.4023,16.4258 16.5332,16.4258 L2.91992,16.4258 Z M7.83203,7.98828 L8.4082,7.98828 C8.75,7.98828 8.85742,7.89062 8.85742,7.54883 L8.85742,6.97266 C8.85742,6.63086 8.75,6.52344 8.4082,6.52344 L7.83203,6.52344 C7.49023,6.52344 7.37305,6.63086 7.37305,6.97266 L7.37305,7.54883 C7.37305,7.89062 7.49023,7.98828 7.83203,7.98828 Z M11.0742,7.98828 L11.6504,7.98828 C11.9922,7.98828 12.1094,7.89062 12.1094,7.54883 L12.1094,6.97266 C12.1094,6.63086 11.9922,6.52344 11.6504,6.52344 L11.0742,6.52344 C10.7324,6.52344 10.6152,6.63086 10.6152,6.97266 L10.6152,7.54883 C10.6152,7.89062 10.7324,7.98828 11.0742,7.98828 Z M14.3164,7.98828 L14.8926,7.98828 C15.2344,7.98828 15.3516,7.89062 15.3516,7.54883 L15.3516,6.97266 C15.3516,6.63086 15.2344,6.52344 14.8926,6.52344 L14.3164,6.52344 C13.9746,6.52344 13.8672,6.63086 13.8672,6.97266 L13.8672,7.54883 C13.8672,7.89062 13.9746,7.98828 14.3164,7.98828 Z M4.58984,11.1816 L5.15625,11.1816 C5.50781,11.1816 5.61523,11.084 5.61523,10.7422 L5.61523,10.166 C5.61523,9.82422 5.50781,9.72656 5.15625,9.72656 L4.58984,9.72656 C4.23828,9.72656 4.13086,9.82422 4.13086,10.166 L4.13086,10.7422 C4.13086,11.084 4.23828,11.1816 4.58984,11.1816 Z M7.83203,11.1816 L8.4082,11.1816 C8.75,11.1816 8.85742,11.084 8.85742,10.7422 L8.85742,10.166 C8.85742,9.82422 8.75,9.72656 8.4082,9.72656 L7.83203,9.72656 C7.49023,9.72656 7.37305,9.82422 7.37305,10.166 L7.37305,10.7422 C7.37305,11.084 7.49023,11.1816 7.83203,11.1816 Z M11.0742,11.1816 L11.6504,11.1816 C11.9922,11.1816 12.1094,11.084 12.1094,10.7422 L12.1094,10.166 C12.1094,9.82422 11.9922,9.72656 11.6504,9.72656 L11.0742,9.72656 C10.7324,9.72656 10.6152,9.82422 10.6152,10.166 L10.6152,10.7422 C10.6152,11.084 10.7324,11.1816 11.0742,11.1816 Z M14.3164,11.1816 L14.8926,11.1816 C15.2344,11.1816 15.3516,11.084 15.3516,10.7422 L15.3516,10.166 C15.3516,9.82422 15.2344,9.72656 14.8926,9.72656 L14.3164,9.72656 C13.9746,9.72656 13.8672,9.82422 13.8672,10.166 L13.8672,10.7422 C13.8672,11.084 13.9746,11.1816 14.3164,11.1816 Z M4.58984,14.3848 L5.15625,14.3848 C5.50781,14.3848 5.61523,14.2773 5.61523,13.9355 L5.61523,13.3594 C5.61523,13.0176 5.50781,12.9199 5.15625,12.9199 L4.58984,12.9199 C4.23828,12.9199 4.13086,13.0176 4.13086,13.3594 L4.13086,13.9355 C4.13086,14.2773 4.23828,14.3848 4.58984,14.3848 Z M7.83203,14.3848 L8.4082,14.3848 C8.75,14.3848 8.85742,14.2773 8.85742,13.9355 L8.85742,13.3594 C8.85742,13.0176 8.75,12.9199 8.4082,12.9199 L7.83203,12.9199 C7.49023,12.9199 7.37305,13.0176 7.37305,13.3594 L7.37305,13.9355 C7.37305,14.2773 7.49023,14.3848 7.83203,14.3848 Z M11.0742,14.3848 L11.6504,14.3848 C11.9922,14.3848 12.1094,14.2773 12.1094,13.9355 L12.1094,13.3594 C12.1094,13.0176 11.9922,12.9199 11.6504,12.9199 L11.0742,12.9199 C10.7324,12.9199 10.6152,13.0176 10.6152,13.3594 L10.6152,13.9355 C10.6152,14.2773 10.7324,14.3848 11.0742,14.3848 Z" id="Shape" fill="url(#linearGradient-1)"></path>
        </g>
    </g>
</svg>