<?xml version="1.0" encoding="UTF-8"?>
<svg width="20px" height="20px" viewBox="0 0 20 20" version="1.1" xmlns="http://www.w3.org/2000/svg" xmlns:xlink="http://www.w3.org/1999/xlink">
    <title>ChuyenNghiep</title>
    <defs>
        <linearGradient x1="50%" y1="0%" x2="50%" y2="100%" id="linearGradient-1">
            <stop stop-color="#5FAF50" offset="0%"></stop>
            <stop stop-color="#6DD400" offset="100%"></stop>
        </linearGradient>
    </defs>
    <g id="Menu" stroke="none" stroke-width="1" fill="none" fill-rule="evenodd">
        <g id="ChuyenNghiep" fill-rule="nonzero">
            <rect id="Rectangle" fill="#000000" opacity="0" x="0" y="0" width="19.9219" height="19.9316"></rect>
            <path d="M9.96094,19.9316 C15.4102,19.9316 19.9219,15.4199 19.9219,9.9707 C19.9219,4.53125 15.4004,0.00976562 9.95117,0.00976562 C4.51172,0.00976562 0,4.53125 0,9.9707 C0,15.4199 4.52148,19.9316 9.96094,19.9316 Z" id="Path" fill-opacity="0.85" fill="#FFFFFF"></path>
            <g id="figure.yoga" transform="translate(5.000000, 4.000000)" fill="url(#linearGradient-1)">
                <path d="M8.16271889,2.53886871 C8.86567637,2.53886871 9.42341387,1.97531884 9.42341387,1.26653114 C9.42341387,0.563547492 8.86567637,0 8.16271889,0 C7.4539312,0 6.88459276,0.563547492 6.88459276,1.26653114 C6.88459276,1.97531884 7.4539312,2.53886871 8.16271889,2.53886871 Z M4.20626885,12.9092881 C4.5316187,12.9092881 4.81048745,12.6420501 4.81048745,12.3109176 L4.81048745,6.85550117 C6.13511254,6.64055657 7.28544986,5.76328753 7.83735714,4.56647507 C7.88387989,4.44446887 8.02326964,4.38637493 8.25570489,4.4677124 L11.1954426,5.45536884 C11.6021299,5.58899382 11.8809689,5.36822496 11.9681247,5.08354384 C12.0610512,4.7930563 11.9565238,4.43866245 11.5788685,4.31665626 L2.77125636,1.3769126 C2.364575,1.2374812 2.07989388,1.46406243 1.99274999,1.7487376 C1.89979374,2.03922514 2.01018115,2.38781257 2.38781257,2.51563113 L5.55413746,3.57300625 C5.69938123,3.62529377 5.77490632,3.79958749 5.68195007,3.95063767 C5.34498738,4.47933118 4.84534382,4.79886867 4.20626885,4.79886867 L1.20261889,4.79886867 L1.20261889,1.78359992 C1.20261889,1.42920012 0.964418869,1.18519368 0.598406235,1.18519368 C0.238200615,1.18519368 0,1.42920012 0,1.78359992 L0,5.3507938 C0,5.74585638 0.197531884,5.93176888 0.499639996,5.98406235 L3.16051252,6.42561197 L3.60786262,9.05158887 L3.60786262,12.3109176 C3.60786262,12.6420501 3.87511258,12.9092881 4.20626885,12.9092881 Z" id="Shape"></path>
            </g>
        </g>
    </g>
</svg>