<?xml version="1.0" encoding="UTF-8"?>
<svg width="20px" height="25px" viewBox="0 0 20 25" version="1.1" xmlns="http://www.w3.org/2000/svg" xmlns:xlink="http://www.w3.org/1999/xlink">
    <title>doc.on.doc.fill</title>
    <defs>
        <linearGradient x1="50%" y1="0%" x2="50%" y2="100%" id="linearGradient-1">
            <stop stop-color="#98D888" stop-opacity="0.85" offset="0%"></stop>
            <stop stop-color="#5FAF50" stop-opacity="0.85" offset="100%"></stop>
        </linearGradient>
        <linearGradient x1="50%" y1="0%" x2="50%" y2="100%" id="linearGradient-2">
            <stop stop-color="#98D888" stop-opacity="0.85" offset="0%"></stop>
            <stop stop-color="#5FAF50" stop-opacity="0.85" offset="100%"></stop>
        </linearGradient>
    </defs>
    <g id="icon" stroke="none" stroke-width="1" fill="none" fill-rule="evenodd">
        <g id="doc.on.doc.fill" transform="translate(0.000000, 0.000000)" fill-rule="nonzero">
            <rect id="Rectangle" fill="#000000" opacity="0" x="0" y="0" width="19.9707" height="24.5996"></rect>
            <path d="M16.5625,19.6973 L16.9434,19.6973 C18.9453,19.6973 19.9707,18.6621 19.9707,16.6309 L19.9707,7.36328 L14.5703,7.36328 C13.5449,7.36328 12.9688,6.78711 12.9688,5.77148 L12.9688,0 L7.76367,0 C5.78125,0 4.73633,1.03516 4.73633,2.98828 L4.73633,3.54492 L6.15234,3.54492 C7.51953,3.54492 8.62305,3.85742 9.7168,4.95117 L15.2637,10.4883 C16.3574,11.5918 16.5625,12.7246 16.5625,14.0527 L16.5625,19.6973 Z M14.7559,6.14258 L19.8535,6.14258 C19.8047,5.83008 19.5898,5.55664 19.248,5.21484 L15.1172,1.00586 C14.7852,0.654297 14.502,0.439453 14.1992,0.400391 L14.209,5.57617 C14.209,5.97656 14.3555,6.14258 14.7559,6.14258 Z" id="Shape" fill="url(#linearGradient-1)"></path>
            <path d="M3.02734,24.5703 L12.207,24.5703 C14.2285,24.5703 15.2344,23.5352 15.2344,21.5039 L15.2344,13.7891 L8.41797,13.7891 C7.1582,13.7891 6.57227,13.1934 6.57227,11.9434 L6.57227,4.87305 L3.02734,4.87305 C1.01562,4.87305 0,5.89844 0,7.93945 L0,21.5039 C0,23.5449 1.00586,24.5703 3.02734,24.5703 Z M8.4082,12.4512 L15.0586,12.4512 C14.9609,12.0703 14.7363,11.7188 14.2969,11.2695 L9.08203,5.95703 C8.65234,5.51758 8.28125,5.22461 7.90039,5.11719 L7.90039,11.9531 C7.90039,12.2852 8.07617,12.4512 8.4082,12.4512 Z" id="Shape" fill="url(#linearGradient-2)"></path>
        </g>
    </g>
</svg>