<?xml version="1.0" encoding="UTF-8"?>
<svg width="20px" height="20px" viewBox="0 0 20 20" version="1.1" xmlns="http://www.w3.org/2000/svg" xmlns:xlink="http://www.w3.org/1999/xlink">
    <title>DatTruoc</title>
    <defs>
        <linearGradient x1="50%" y1="0%" x2="50%" y2="100%" id="linearGradient-1">
            <stop stop-color="#5FAF50" offset="0%"></stop>
            <stop stop-color="#6DD400" offset="100%"></stop>
        </linearGradient>
    </defs>
    <g id="Menu" stroke="none" stroke-width="1" fill="none" fill-rule="evenodd">
        <g id="DatTruoc" fill-rule="nonzero">
            <rect id="Rectangle" fill="#000000" opacity="0" x="0" y="0" width="19.9219" height="19.9316"></rect>
            <path d="M9.96094,19.9316 C15.4102,19.9316 19.9219,15.4199 19.9219,9.9707 C19.9219,4.53125 15.4004,0.00976562 9.95117,0.00976562 C4.51172,0.00976562 0,4.53125 0,9.9707 C0,15.4199 4.52148,19.9316 9.96094,19.9316 Z" id="Path" fill-opacity="0.85" fill="#FFFFFF"></path>
            <path d="M8.27148,13.3789 C7.36328,13.3789 6.83594,12.959 6.71875,12.1582 L5.92773,6.5918 L4.36523,6.5918 C4.05273,6.5918 3.83789,6.37695 3.83789,6.06445 C3.83789,5.74219 4.05273,5.52734 4.36523,5.52734 L6.07422,5.52734 C6.5332,5.52734 6.89453,5.82031 6.95312,6.25 L7.04102,6.92383 L15.1855,6.92383 C15.4785,6.92383 15.6543,7.09961 15.6543,7.34375 C15.6543,7.38281 15.6445,7.4707 15.625,7.5293 L15.2246,10.2637 C15.1172,10.9961 14.7363,11.4453 13.9844,11.4453 L7.70508,11.4453 L7.74414,11.8262 C7.7832,12.1387 7.98828,12.3242 8.29102,12.3242 L13.75,12.3242 C14.0625,12.3242 14.2676,12.5293 14.2676,12.8418 C14.2676,13.1738 14.0625,13.3789 13.75,13.3789 L8.27148,13.3789 Z M8.42773,15.8496 C7.92969,15.8496 7.5293,15.459 7.5293,14.9512 C7.5293,14.4336 7.92969,14.043 8.42773,14.043 C8.93555,14.043 9.33594,14.4336 9.33594,14.9512 C9.33594,15.459 8.93555,15.8496 8.42773,15.8496 Z M12.9297,15.8496 C12.4316,15.8496 12.0117,15.459 12.0117,14.9512 C12.0117,14.4336 12.4316,14.043 12.9297,14.043 C13.4375,14.043 13.8379,14.4336 13.8379,14.9512 C13.8379,15.459 13.4375,15.8496 12.9297,15.8496 Z" id="Shape" fill="url(#linearGradient-1)"></path>
        </g>
    </g>
</svg>