<?xml version="1.0" encoding="UTF-8"?>
<svg width="20px" height="20px" viewBox="0 0 20 20" version="1.1" xmlns="http://www.w3.org/2000/svg" xmlns:xlink="http://www.w3.org/1999/xlink">
    <title>GiaDinh</title>
    <defs>
        <linearGradient x1="50%" y1="0%" x2="50%" y2="100%" id="linearGradient-1">
            <stop stop-color="#5FAF50" offset="0%"></stop>
            <stop stop-color="#6DD400" offset="100%"></stop>
        </linearGradient>
    </defs>
    <g id="Menu" stroke="none" stroke-width="1" fill="none" fill-rule="evenodd">
        <g id="GiaDinh" fill-rule="nonzero">
            <rect id="Rectangle" fill="#000000" opacity="0" x="0" y="0" width="19.9219" height="19.9316"></rect>
            <path d="M9.96094,19.9316 C15.4102,19.9316 19.9219,15.4199 19.9219,9.9707 C19.9219,4.53125 15.4004,0.00976562 9.95117,0.00976562 C4.51172,0.00976562 0,4.53125 0,9.9707 C0,15.4199 4.52148,19.9316 9.96094,19.9316 Z" id="Path" fill-opacity="0.85" fill="#FFFFFF"></path>
            <path d="M6.1300416,7.00739653 C6.68894847,7.00739653 7.13607206,6.56493257 7.13607206,6.00603046 C7.13607206,5.44712359 6.68894847,5 6.1300416,5 C5.57113949,5 5.1240159,5.44712359 5.1240159,6.00603046 C5.1240159,6.56493257 5.57113949,7.00739653 6.1300416,7.00739653 Z M4.52319149,15.3862875 C4.74209843,15.3862875 4.89113963,15.2651945 4.97031508,14.97646 C5.12867076,14.4035695 5.59908293,12.4520598 5.7574386,11.981662 C5.86456226,11.6462835 5.93908286,11.5158903 6.1300416,11.5158903 C6.32100033,11.5158903 6.39552093,11.6462835 6.50264459,11.981662 C6.66100026,12.4520598 7.13141243,14.4035695 7.28976811,14.97646 C7.36894833,15.2651945 7.51798953,15.3862875 7.7368917,15.3862875 C8.03496932,15.3862875 8.21663266,15.1161533 8.13278804,14.8227449 C8.1001659,14.696978 7.42483997,11.8745431 7.32703079,11.2923524 C7.24785057,10.7799845 7.22922161,9.74602971 7.22922161,9.25698858 C7.22922161,9.18246799 7.31305669,9.15452455 7.35963385,9.21973067 L7.88592813,9.95560787 C7.94182454,9.67150911 8.20728479,9.37342672 8.59388573,9.36411224 L7.87195402,8.31150939 C7.49004609,7.75260251 7.0149743,7.49644243 6.1300416,7.49644243 C5.24510889,7.49644243 4.77004187,7.74794766 4.3881244,8.31150939 L3.18182168,10.0860487 C3.13524642,10.1558715 3.08401345,10.2257421 3.0467531,10.2956126 C2.94894492,10.472602 3.00017772,10.7287621 3.2423696,10.854529 C3.42401386,10.9569739 3.64757327,10.9290257 3.78264513,10.7706844 C3.90839775,10.6216432 4.5511397,9.71342665 4.90045411,9.21973067 C4.94237165,9.1591794 5.03086635,9.18246799 5.03086635,9.26164821 C5.03086635,9.75068934 5.00757777,10.7799845 4.92839754,11.2923524 C4.83524799,11.8745431 4.15990298,14.696978 4.12729992,14.8227449 C4.04346484,15.1161533 4.2251091,15.3862875 4.52319149,15.3862875 Z M10.0004531,10.2257421 C10.4103283,10.2257421 10.750333,9.89041129 10.750333,9.48055038 C10.750333,9.07068947 10.4103283,8.7353444 10.0004531,8.7353444 C9.59057787,8.7353444 9.2552471,9.07068947 9.2552471,9.48055038 C9.2552471,9.89041129 9.59057787,10.2257421 10.0004531,10.2257421 Z M9.01306112,15.3862875 C9.19005052,15.3862875 9.33441779,15.2838426 9.39498813,15.0509568 C9.49280685,14.7016519 9.77691514,13.5000221 9.87005992,13.206566 C9.9352565,13.0156025 9.94923061,13.0016284 10.0004531,13.0016284 C10.0516756,13.0016284 10.0610234,13.0156025 10.12622,13.206566 C10.2193648,13.5000221 10.5034731,14.7016519 10.605918,15.0509568 C10.6618145,15.2838426 10.8108556,15.3862875 10.9878451,15.3862875 C11.253353,15.3862875 11.4070204,15.1394753 11.3418239,14.8972893 C11.3185496,14.8180709 10.9133483,13.0901469 10.8481517,12.726868 C10.8015555,12.4380857 10.7875814,11.855895 10.7875814,11.6230092 C10.7875814,11.4879421 10.8341776,11.3994713 10.9086744,11.3063265 C11.2440051,10.8871511 11.6678545,10.4074054 11.7190769,10.3282347 C11.8308698,10.1652194 11.7889474,9.9742559 11.6631805,9.84381505 C11.5188133,9.68082359 11.2766273,9.68548322 11.1508604,9.81591453 L10.6571882,10.3422088 C10.4522506,10.5611205 10.2798874,10.6635655 10.0004531,10.6635655 C9.72101873,10.6635655 9.54865556,10.5611205 9.34376565,10.3422088 L8.85004582,9.81591453 C8.7242789,9.68548322 8.47741898,9.68082359 8.33772565,9.84381505 C8.20728479,9.9742559 8.17003642,10.1652194 8.27715531,10.3282347 C8.32837778,10.4074054 8.75690103,10.8871511 9.0922318,11.3063265 C9.16677625,11.3994713 9.20869856,11.4879421 9.20869856,11.6230092 C9.20869856,11.855895 9.19935069,12.4380857 9.15280214,12.726868 C9.08755787,13.0901469 8.68235659,14.8180709 8.65440838,14.8972893 C8.59388573,15.1394753 8.74760086,15.3862875 9.01306112,15.3862875 Z M13.8708503,7.00739653 C14.4297667,7.00739653 14.872264,6.56493257 14.872264,6.00603046 C14.872264,5.44712359 14.4297667,5 13.8708503,5 C13.3119815,5 12.864858,5.44712359 12.864858,6.00603046 C12.864858,6.56493257 13.3119815,7.00739653 13.8708503,7.00739653 Z M12.2640192,15.3862875 C12.482931,15.3862875 12.6272982,15.2651945 12.7111428,14.97646 C12.864858,14.4035695 13.3399298,12.4520598 13.4982711,11.981662 C13.6007161,11.6462835 13.6799345,11.5158903 13.8708503,11.5158903 C14.0571875,11.5158903 14.1363582,11.6462835 14.2434771,11.981662 C14.3971922,12.4520598 14.872264,14.4035695 15.0306054,14.97646 C15.1097761,15.2651945 15.2588173,15.3862875 15.477729,15.3862875 C15.7758114,15.3862875 15.957427,15.1161533 15.8736301,14.8227449 C15.836334,14.696978 15.1609986,11.8745431 15.0678538,11.2923524 C14.9886831,10.7799845 14.9700351,9.75068934 14.9700351,9.26164821 C14.9700351,9.18246799 15.0585536,9.1591794 15.095802,9.21973067 C15.4497808,9.71342665 16.0878679,10.6216432 16.2136348,10.7706844 C16.3533281,10.9290257 16.5722398,10.9569739 16.7585294,10.854529 C16.9960892,10.7287621 17.0519856,10.472602 16.9541669,10.2956126 C16.9122445,10.2257421 16.8656483,10.1558715 16.8144258,10.0860487 L15.6127961,8.31150939 C15.2261951,7.74794766 14.7557973,7.49644243 13.8708503,7.49644243 C12.985951,7.49644243 12.5108792,7.75260251 12.1289521,8.31150939 L11.4023942,9.36411224 C11.7936214,9.37342672 12.0544077,9.67150911 12.114978,9.95560787 L12.6412723,9.21973067 C12.6878686,9.15452455 12.7717132,9.18246799 12.7717132,9.25698858 C12.7717132,9.74602971 12.7483912,10.7799845 12.6692205,11.2923524 C12.5760757,11.8745431 11.9007403,14.696978 11.8681181,14.8227449 C11.7796473,15.1161533 11.9659368,15.3862875 12.2640192,15.3862875 Z" id="Shape" fill="url(#linearGradient-1)"></path>
        </g>
    </g>
</svg>