<?xml version="1.0" encoding="UTF-8"?>
<svg width="19px" height="22px" viewBox="0 0 19 22" version="1.1" xmlns="http://www.w3.org/2000/svg" xmlns:xlink="http://www.w3.org/1999/xlink">
    <title>gift.fill</title>
    <defs>
        <linearGradient x1="50%" y1="0%" x2="50%" y2="100%" id="linearGradient-1">
            <stop stop-color="#98D888" offset="0%"></stop>
            <stop stop-color="#5FAF50" offset="100%"></stop>
        </linearGradient>
        <linearGradient x1="50%" y1="0%" x2="50%" y2="100%" id="linearGradient-2">
            <stop stop-color="#98D888" offset="0%"></stop>
            <stop stop-color="#5FAF50" offset="100%"></stop>
        </linearGradient>
    </defs>
    <g id="icon" stroke="none" stroke-width="1" fill="none" fill-rule="evenodd">
        <g id="gift.fill" fill-rule="nonzero">
            <rect id="Rectangle" fill="url(#linearGradient-1)" opacity="0" x="0" y="0" width="18.7598" height="21.5723"></rect>
            <path d="M1.39648,17.9883 C1.39648,19.6191 2.35352,20.4688 3.98438,20.4688 L8.57422,20.4688 L8.57422,11.6992 L1.39648,11.6992 L1.39648,17.9883 Z M10.1758,20.4688 L14.7754,20.4688 C16.3965,20.4688 17.3633,19.6191 17.3633,17.9883 L17.3633,11.6992 L10.1758,11.6992 L10.1758,20.4688 Z M0,9.19922 C0,10.2441 0.585938,10.6543 1.64062,10.6543 L8.57422,10.6543 L8.57422,5.37109 L7.05078,5.37109 C5.51758,5.37109 4.61914,4.4043 4.61914,3.33008 C4.61914,2.25586 5.40039,1.63086 6.47461,1.63086 C7.63672,1.63086 8.57422,2.50977 8.57422,3.95508 L8.57422,5.37109 L10.1758,5.37109 L10.1758,3.95508 C10.1758,2.50977 11.1133,1.63086 12.2754,1.63086 C13.3496,1.63086 14.1309,2.25586 14.1309,3.33008 C14.1309,4.4043 13.2422,5.37109 11.6992,5.37109 L10.1758,5.37109 L10.1758,10.6543 L17.1191,10.6543 C18.1738,10.6543 18.7598,10.2441 18.7598,9.19922 L18.7598,6.82617 C18.7598,5.78125 18.1738,5.37109 17.1191,5.37109 L14.8535,5.37109 C15.4199,4.83398 15.7617,4.10156 15.7617,3.24219 C15.7617,1.34766 14.2676,0 12.373,0 C11.0059,0 9.87305,0.751953 9.375,2.06055 C8.87695,0.751953 7.75391,0 6.37695,0 C4.49219,0 2.98828,1.34766 2.98828,3.24219 C2.98828,4.10156 3.33008,4.83398 3.90625,5.37109 L1.64062,5.37109 C0.634766,5.37109 0,5.78125 0,6.82617 L0,9.19922 Z" id="Shape" fill="url(#linearGradient-2)"></path>
        </g>
    </g>
</svg>