<?xml version="1.0" encoding="UTF-8"?>
<svg width="20px" height="20px" viewBox="0 0 20 20" version="1.1" xmlns="http://www.w3.org/2000/svg" xmlns:xlink="http://www.w3.org/1999/xlink">
    <title>GoiTap</title>
    <defs>
        <linearGradient x1="50%" y1="0%" x2="50%" y2="100%" id="linearGradient-1">
            <stop stop-color="#5FAF50" offset="0%"></stop>
            <stop stop-color="#6DD400" offset="100%"></stop>
        </linearGradient>
    </defs>
    <g id="Menu" stroke="none" stroke-width="1" fill="none" fill-rule="evenodd">
        <g id="GoiTap" fill-rule="nonzero">
            <rect id="Rectangle" fill="#000000" opacity="0" x="0" y="0" width="19.9219" height="19.9316"></rect>
            <path d="M9.96094,19.9316 C15.4102,19.9316 19.9219,15.4199 19.9219,9.9707 C19.9219,4.53125 15.4004,0.00976562 9.95117,0.00976562 C4.51172,0.00976562 0,4.53125 0,9.9707 C0,15.4199 4.52148,19.9316 9.96094,19.9316 Z" id="Path" fill-opacity="0.85" fill="#FFFFFF"></path>
            <path d="M6.96289,14.9219 C5.85938,14.9219 5.30273,14.3848 5.30273,13.3105 L5.30273,7.87109 C5.30273,6.78711 5.85938,6.25977 6.96289,6.25977 L7.79297,6.25977 C7.8125,5.14648 8.76953,4.20898 9.96094,4.20898 C11.1523,4.20898 12.1094,5.14648 12.1289,6.25977 L12.959,6.25977 C14.0625,6.25977 14.6191,6.79688 14.6191,7.87109 L14.6191,13.3105 C14.6191,14.3848 14.0723,14.9219 13.125,14.9219 L6.96289,14.9219 Z M8.76953,6.25977 L11.1523,6.25977 C11.123,5.57617 10.6738,5.13672 9.96094,5.13672 C9.24805,5.13672 8.79883,5.57617 8.76953,6.25977 Z" id="Shape" fill="url(#linearGradient-1)"></path>
        </g>
    </g>
</svg>