<?xml version="1.0" encoding="UTF-8"?>
<svg width="18px" height="18px" viewBox="0 0 18 18" version="1.1" xmlns="http://www.w3.org/2000/svg" xmlns:xlink="http://www.w3.org/1999/xlink">
    <title>hoitho</title>
    <defs>
        <linearGradient x1="50%" y1="0%" x2="50%" y2="100%" id="linearGradient-1">
            <stop stop-color="#98D888" offset="0%"></stop>
            <stop stop-color="#5FAF50" offset="100%"></stop>
        </linearGradient>
        <linearGradient x1="50%" y1="0%" x2="50%" y2="100%" id="linearGradient-2">
            <stop stop-color="#98D888" offset="0%"></stop>
            <stop stop-color="#5FAF50" offset="100%"></stop>
        </linearGradient>
    </defs>
    <g id="web-shopping" stroke="none" stroke-width="1" fill="none" fill-rule="evenodd">
        <g id="hoitho">
            <ellipse id="Oval" fill="url(#linearGradient-1)" cx="9" cy="2.25" rx="2.17241379" ry="2.25"></ellipse>
            <path d="M0.764983284,12.75882 L2.74204357,10.3923789 L2.74204357,10.3923789 L3.57196637,8.90493893 C4.64645489,6.97917284 6.67900949,5.78571429 8.88425337,5.78571429 C11.088126,5.78571429 13.118013,6.98298444 14.1842506,8.91176439 L15.0027404,10.3923789 L15.0027404,10.3923789 L17.152635,12.7465767 C17.6393964,13.2795948 17.6619818,14.088836 17.2057073,14.6481735 C16.8268497,15.1126073 16.143227,15.1819805 15.6787932,14.8031229 C15.6378278,14.7697057 15.599359,14.7333399 15.5636941,14.6943158 L13.0048741,11.894488 L13.0048741,11.894488 L12.020209,9.90047741 L11.773527,12.7647514 L16.1744363,15.0199575 C16.8277794,15.3547572 17.0948259,16.1495654 16.7761863,16.8109403 C16.4353377,17.5184127 15.6744083,17.9224382 14.8974191,17.8084966 L9.2181376,16.9756582 L9.2181376,16.9756582 L3.44102674,17.7990229 C2.60633528,17.9179847 1.79390729,17.4692238 1.45018629,16.6993422 C1.125534,15.9721716 1.43149273,15.1183236 2.14409475,14.7628316 L6.14934939,12.7647514 L6.14934939,12.7647514 L5.89372839,9.90047741 L5.07426283,11.6102506 L2.44980412,14.5135646 C2.03884134,14.9681932 1.33714089,15.0035913 0.882512295,14.5926285 C0.86262018,14.574647 0.843386387,14.5559503 0.824848799,14.5365754 C0.355160713,14.0456704 0.329384015,13.2802103 0.764983284,12.75882 Z" id="Path-3" fill="url(#linearGradient-2)"></path>
        </g>
    </g>
</svg>