<?xml version="1.0" encoding="UTF-8"?>
<svg width="35px" height="23px" viewBox="0 0 35 23" version="1.1" xmlns="http://www.w3.org/2000/svg" xmlns:xlink="http://www.w3.org/1999/xlink">
    <title>icon-quote</title>
    <defs>
        <linearGradient x1="50%" y1="0%" x2="50%" y2="100%" id="linearGradient-1">
            <stop stop-color="#98D888" offset="0%"></stop>
            <stop stop-color="#5FAF50" offset="100%"></stop>
        </linearGradient>
    </defs>
    <g id="icon" stroke="none" stroke-width="1" fill="none" fill-rule="evenodd">
        <g id="icon-quote" fill="url(#linearGradient-1)">
            <path d="M9.66778987,0.141633528 L11.1520999,1.02991053 C11.4157999,1.18770053 11.4758999,1.54355053 11.2807999,1.78098053 C9.11818987,4.41357053 7.15446987,7.26836053 7.15426987,10.8058505 C10.1091999,10.8058505 13.1542999,13.2116505 13.1542999,16.2916505 C13.1542999,20.5940505 9.65412987,23.2735505 6.15412987,22.7748505 C2.65412987,22.2761505 0.58341487,19.7826505 0.15426987,16.7903505 C-0.83025913,9.92565053 3.00291987,3.74414053 8.64508987,0.148820528 C8.95584987,-0.0492044724 9.35158987,-0.0475934724 9.66778987,0.141633528 Z M30.6677999,0.141633528 L32.1520999,1.02991053 C32.4157999,1.18770053 32.4758999,1.54355053 32.2807999,1.78098053 C30.1181999,4.41357053 28.1544999,7.26836053 28.1542999,10.8058505 C31.1091999,10.8058505 34.1542999,13.2116505 34.1542999,16.2916505 C34.1542999,20.5940505 30.6540999,23.2735505 27.1540999,22.7748505 C23.6540999,22.2761505 21.5833999,19.7826505 21.1542999,16.7903505 C20.1696999,9.92565053 24.0028999,3.74414053 29.6450999,0.148820528 C29.9557999,-0.0492044724 30.3515999,-0.0475934724 30.6677999,0.141633528 Z" id="Shape"></path>
        </g>
    </g>
</svg>