<?xml version="1.0" encoding="UTF-8"?>
<svg width="20px" height="20px" viewBox="0 0 20 20" version="1.1" xmlns="http://www.w3.org/2000/svg" xmlns:xlink="http://www.w3.org/1999/xlink">
    <title>LoTrinh</title>
    <defs>
        <linearGradient x1="50%" y1="30.0385346%" x2="50%" y2="100%" id="linearGradient-1">
            <stop stop-color="#5FAF50" offset="0%"></stop>
            <stop stop-color="#98D888" offset="100%"></stop>
        </linearGradient>
    </defs>
    <g id="Menu" stroke="none" stroke-width="1" fill="none" fill-rule="evenodd">
        <g id="LoTrinh">
            <rect id="Rectangle" fill="#000000" fill-rule="nonzero" opacity="0" x="0" y="0" width="19.9219" height="19.9316"></rect>
            <path d="M9.96094,19.9316 C15.4102,19.9316 19.9219,15.4199 19.9219,9.9707 C19.9219,4.53125 15.4004,0.00976562 9.95117,0.00976562 C4.51172,0.00976562 0,4.53125 0,9.9707 C0,15.4199 4.52148,19.9316 9.96094,19.9316 Z" id="Path" fill-opacity="0.85" fill="#FFFFFF" fill-rule="nonzero"></path>
            <g id="sent24" transform="translate(4.000000, 4.000000)">
                <rect id="Rectangle" x="0" y="0" width="12" height="12"></rect>
                <path d="M10.9490859,1.04008247 C10.9045718,0.997896813 10.8412236,0.988109482 10.7875315,1.01501657 L1.08649612,5.88516665 C1.03426898,5.9113954 1.00063673,5.96769678 1,6.02990932 C0.999381126,6.09212186 1.03190725,6.14919847 1.08362617,6.17662238 L3.82900425,7.63238289 C3.87934799,7.65909617 3.93937781,7.6530558 3.9843404,7.616749 L6.65360495,5.46114587 L4.55812151,7.79007844 C4.52822618,7.8233166 4.51297956,7.86882931 4.51626805,7.91502034 L4.72490757,10.8508643 C4.72954135,10.9159194 4.76990005,10.9715424 4.82726919,10.9919246 C4.8426055,10.9973513 4.85836034,11 4.87393581,11 C4.91665624,11 4.95821075,10.9801992 4.98711953,10.9440216 L6.44427783,9.11957269 L8.2456211,10.0495306 C8.28472419,10.069719 8.32998573,10.0705589 8.36971662,10.0518886 C8.40944752,10.0331861 8.4397016,9.99681472 8.45267617,9.95217415 L10.9931217,1.20989105 C11.0108796,1.14884136 10.9935702,1.08226813 10.9490859,1.04008247 Z" id="Path" fill="url(#linearGradient-1)"></path>
            </g>
        </g>
    </g>
</svg>