<?xml version="1.0" encoding="UTF-8"?>
<svg width="18px" height="23px" viewBox="0 0 18 23" version="1.1" xmlns="http://www.w3.org/2000/svg" xmlns:xlink="http://www.w3.org/1999/xlink">
    <title>magazine</title>
    <defs>
        <linearGradient x1="50%" y1="0%" x2="50%" y2="100%" id="linearGradient-1">
            <stop stop-color="#98D888" offset="0%"></stop>
            <stop stop-color="#5FAF50" offset="100%"></stop>
        </linearGradient>
        <linearGradient x1="50%" y1="0%" x2="50%" y2="100%" id="linearGradient-2">
            <stop stop-color="#98D888" offset="0%"></stop>
            <stop stop-color="#5FAF50" offset="100%"></stop>
        </linearGradient>
    </defs>
    <g id="icon" stroke="none" stroke-width="1" fill="none" fill-rule="evenodd">
        <g id="magazine" fill-rule="nonzero">
            <rect id="Rectangle" fill="url(#linearGradient-1)" opacity="0" x="0" y="0" width="17.0996" height="22.9004"></rect>
            <path d="M13.7695,3.39844 L14.8828,3.39844 C15.3125,3.39844 15.5273,3.63281 15.5273,4.13086 L15.5273,19.0137 C15.5273,19.5996 15.4395,19.8145 14.8828,20.0586 C12.9395,20.9082 10.2051,21.4551 7.62695,21.4551 C6.12305,21.4551 4.67773,21.3574 3.18359,21.1035 L3.18359,21.2305 C7.31445,21.2891 11.2598,20.127 13.0566,18.75 C13.75,18.2227 13.9551,17.8711 13.9551,17.0117 L13.9551,1.43555 C13.9551,0.46875 13.4668,0 12.6074,0 C12.3145,0 11.9629,0.0683594 11.543,0.205078 C8.59375,1.17188 5.89844,1.78711 2.44141,1.78711 L1.66016,1.78711 C0.605469,1.78711 0,2.40234 0,3.35938 L0,20.1172 C0,20.8789 0.166016,21.3379 0.888672,21.6895 C2.55859,22.4121 5.05859,22.8906 7.62695,22.8906 C10.3613,22.8906 13.4375,22.4805 15.6445,21.4062 C16.8164,20.8496 17.0996,20.332 17.0996,19.1211 L17.0996,4.13086 C17.0996,2.54883 16.3965,1.82617 14.873,1.82617 L13.7695,1.82617 L13.7695,3.39844 Z M1.57227,19.3848 L1.57227,3.7793 C1.57227,3.50586 1.71875,3.33984 1.97266,3.33984 L2.50977,3.33984 C5.92773,3.33984 9.12109,2.65625 11.8457,1.79688 C12.1777,1.68945 12.3828,1.77734 12.3828,2.08008 L12.3828,16.6699 C12.3828,17.1973 12.3145,17.4121 11.8164,17.7344 C9.78516,19.0918 6.49414,19.9316 1.91406,19.7363 C1.66992,19.7266 1.57227,19.6191 1.57227,19.3848 Z M3.56445,5.91797 L3.56445,9.12109 C3.56445,9.27734 3.67188,9.3457 3.79883,9.3457 C6.09375,9.3457 8.41797,8.93555 10.1758,8.23242 C10.2637,8.19336 10.3125,8.10547 10.3125,8.01758 L10.3125,4.67773 C10.3125,4.45312 10.1074,4.4043 10,4.45312 C7.97852,5.18555 6.00586,5.57617 3.79883,5.66406 C3.66211,5.67383 3.56445,5.78125 3.56445,5.91797 Z" id="Shape" fill="url(#linearGradient-2)"></path>
        </g>
    </g>
</svg>