<?xml version="1.0" encoding="UTF-8"?>
<svg width="23px" height="21px" viewBox="0 0 23 21" version="1.1" xmlns="http://www.w3.org/2000/svg" xmlns:xlink="http://www.w3.org/1999/xlink">
    <title>newspaper</title>
    <defs>
        <linearGradient x1="50%" y1="0%" x2="50%" y2="100%" id="linearGradient-1">
            <stop stop-color="#98D888" offset="0%"></stop>
            <stop stop-color="#5FAF50" offset="100%"></stop>
        </linearGradient>
        <linearGradient x1="50%" y1="0%" x2="50%" y2="100%" id="linearGradient-2">
            <stop stop-color="#98D888" offset="0%"></stop>
            <stop stop-color="#5FAF50" offset="100%"></stop>
        </linearGradient>
    </defs>
    <g id="icon" stroke="none" stroke-width="1" fill="none" fill-rule="evenodd">
        <g id="newspaper" fill-rule="nonzero">
            <rect id="Rectangle" fill="url(#linearGradient-1)" opacity="0" x="0" y="0" width="22.207" height="20.9473"></rect>
            <path d="M0,17.9883 C0,19.9316 0.966797,20.9375 2.94922,20.9375 L19.1406,20.9375 C21.1914,20.9375 22.207,19.9316 22.207,17.9199 L22.207,3.02734 C22.207,1.01562 21.1914,0 19.1406,0 L7.37305,0 C5.33203,0 4.30664,1.01562 4.30664,3.02734 L4.30664,7.68555 L1.97266,7.68555 C0.732422,7.68555 0,8.35938 0,9.52148 L0,17.9883 Z M1.57227,17.9883 L1.57227,9.82422 C1.57227,9.46289 1.78711,9.25781 2.14844,9.25781 L4.30664,9.25781 L4.30664,17.9883 C4.30664,18.7988 3.71094,19.3652 2.94922,19.3652 C2.17773,19.3652 1.57227,18.7695 1.57227,17.9883 Z M5.54688,19.3652 C5.76172,18.9453 5.87891,18.457 5.87891,17.8906 L5.87891,3.11523 C5.87891,2.09961 6.42578,1.57227 7.40234,1.57227 L19.1113,1.57227 C20.0879,1.57227 20.6348,2.09961 20.6348,3.11523 L20.6348,17.832 C20.6348,18.8477 20.0879,19.3652 19.1113,19.3652 L5.54688,19.3652 Z M8.41797,5.82031 L18.1152,5.82031 C18.457,5.82031 18.7207,5.54688 18.7207,5.20508 C18.7207,4.87305 18.457,4.61914 18.1152,4.61914 L8.41797,4.61914 C8.06641,4.61914 7.80273,4.87305 7.80273,5.20508 C7.80273,5.54688 8.06641,5.82031 8.41797,5.82031 Z M8.41797,9.25781 L18.1152,9.25781 C18.457,9.25781 18.7207,8.99414 18.7207,8.66211 C18.7207,8.32031 18.457,8.05664 18.1152,8.05664 L8.41797,8.05664 C8.06641,8.05664 7.80273,8.32031 7.80273,8.66211 C7.80273,8.99414 8.06641,9.25781 8.41797,9.25781 Z M8.99414,16.2207 L11.5234,16.2207 C12.2656,16.2207 12.7148,15.7715 12.7148,15.0293 L12.7148,12.7051 C12.7148,11.9531 12.2656,11.5039 11.5234,11.5039 L8.99414,11.5039 C8.24219,11.5039 7.79297,11.9531 7.79297,12.7051 L7.79297,15.0293 C7.79297,15.7715 8.24219,16.2207 8.99414,16.2207 Z M14.4727,12.7051 L18.1055,12.7051 C18.457,12.7051 18.7109,12.4512 18.7109,12.1191 C18.7109,11.7676 18.457,11.5039 18.1055,11.5039 L14.4727,11.5039 C14.1211,11.5039 13.8672,11.7676 13.8672,12.1191 C13.8672,12.4512 14.1211,12.7051 14.4727,12.7051 Z M14.4727,16.2207 L18.1055,16.2207 C18.457,16.2207 18.7109,15.9668 18.7109,15.6348 C18.7109,15.293 18.457,15.0195 18.1055,15.0195 L14.4727,15.0195 C14.1211,15.0195 13.8672,15.293 13.8672,15.6348 C13.8672,15.9668 14.1211,16.2207 14.4727,16.2207 Z" id="Shape" fill="url(#linearGradient-2)"></path>
        </g>
    </g>
</svg>