<?xml version="1.0" encoding="UTF-8"?>
<svg width="20px" height="20px" viewBox="0 0 20 20" version="1.1" xmlns="http://www.w3.org/2000/svg" xmlns:xlink="http://www.w3.org/1999/xlink">
    <title>SoThich</title>
    <defs>
        <linearGradient x1="50%" y1="0%" x2="50%" y2="100%" id="linearGradient-1">
            <stop stop-color="#5FAF50" offset="0%"></stop>
            <stop stop-color="#6DD400" offset="100%"></stop>
        </linearGradient>
    </defs>
    <g id="Menu" stroke="none" stroke-width="1" fill="none" fill-rule="evenodd">
        <g id="SoThich" fill-rule="nonzero">
            <rect id="Rectangle" fill="#000000" opacity="0" x="0" y="0" width="19.9219" height="19.9316"></rect>
            <path d="M9.96094,19.9316 C15.4102,19.9316 19.9219,15.4199 19.9219,9.9707 C19.9219,4.53125 15.4004,0.00976562 9.95117,0.00976562 C4.51172,0.00976562 0,4.53125 0,9.9707 C0,15.4199 4.52148,19.9316 9.96094,19.9316 Z" id="Path" fill-opacity="0.85" fill="#FFFFFF"></path>
            <g id="heart.fill" transform="translate(4.000000, 5.000000)">
                <rect id="Rectangle" fill="#000000" opacity="0" x="0" y="0" width="12" height="11.4622599"></rect>
                <path d="M6.00001237,11.4622599 C6.12689577,11.4622599 6.30815953,11.3776792 6.44112506,11.2991003 C9.84291423,9.12388564 12,6.59215757 12,4.01813298 C12,1.87915749 10.5317487,0.368580577 8.63446853,0.368580577 C7.45621697,0.368580577 6.54983629,1.02114929 6.00001237,2.01813091 C5.46224136,1.02719431 4.54381397,0.368580577 3.3655624,0.368580577 C1.46828224,0.368580577 0,1.87915749 0,4.01813298 C0,6.59215757 2.15710433,9.12388564 5.56496326,11.2991003 C5.69185284,11.3776792 5.87312279,11.4622599 6.00001237,11.4622599 Z" id="Path" fill="url(#linearGradient-1)"></path>
            </g>
        </g>
    </g>
</svg>