<?xml version="1.0" encoding="UTF-8"?>
<svg width="20px" height="20px" viewBox="0 0 20 20" version="1.1" xmlns="http://www.w3.org/2000/svg" xmlns:xlink="http://www.w3.org/1999/xlink">
    <title>ThienTho</title>
    <defs>
        <linearGradient x1="50%" y1="0%" x2="50%" y2="100%" id="linearGradient-1">
            <stop stop-color="#5FAF50" offset="0%"></stop>
            <stop stop-color="#6DD400" offset="100%"></stop>
        </linearGradient>
        <linearGradient x1="50%" y1="0%" x2="50%" y2="100%" id="linearGradient-2">
            <stop stop-color="#5FAF50" offset="0%"></stop>
            <stop stop-color="#6DD400" offset="100%"></stop>
        </linearGradient>
    </defs>
    <g id="Menu" stroke="none" stroke-width="1" fill="none" fill-rule="evenodd">
        <g id="ThienTho" fill-rule="nonzero">
            <rect id="Rectangle" fill="#000000" opacity="0" x="0" y="0" width="19.9219" height="19.9316"></rect>
            <path d="M9.96094,19.9316 C15.4102,19.9316 19.9219,15.4199 19.9219,9.9707 C19.9219,4.53125 15.4004,0.00976562 9.95117,0.00976562 C4.51172,0.00976562 0,4.53125 0,9.9707 C0,15.4199 4.52148,19.9316 9.96094,19.9316 Z" id="Path" fill-opacity="0.85" fill="#FFFFFF"></path>
            <g id="meditationicon48" transform="translate(4.000000, 3.000000)">
                <ellipse id="Oval" fill="url(#linearGradient-1)" cx="6" cy="1.5" rx="1.44827586" ry="1.5"></ellipse>
                <path d="M0.509988856,8.50588003 L1.82802905,6.92825261 L1.82802905,6.92825261 L2.38131091,5.93662595 C3.09763659,4.6527819 4.45267299,3.85714286 5.92283558,3.85714286 C7.39208401,3.85714286 8.74534202,4.65532296 9.45616706,5.94117626 L10.001827,6.92825261 L10.001827,6.92825261 L11.43509,8.49771782 C11.7595976,8.85306317 11.7746545,9.39255731 11.4704715,9.76544899 C11.2178998,10.0750715 10.7621513,10.1213203 10.4525288,9.86874857 C10.4252185,9.8464705 10.3995727,9.8222266 10.3757961,9.79621055 L8.66991609,7.92965868 L8.66991609,7.92965868 L8.01347266,6.60031827 L7.849018,8.50983427 L10.7829576,10.013305 C11.2185196,10.2365048 11.3965506,10.7663769 11.1841242,11.2072935 C10.9568918,11.6789418 10.4496056,11.9482921 9.93161272,11.8723311 L6.14542507,11.3171055 L6.14542507,11.3171055 L2.29401783,11.8660153 C1.73755685,11.9453231 1.19593819,11.6461492 0.966790857,11.1328948 C0.750355998,10.6481144 0.954328488,10.0788824 1.4293965,9.84188775 L4.09956626,8.50983427 L4.09956626,8.50983427 L3.92915226,6.60031827 L3.38284189,7.74016709 L1.63320275,9.67570972 C1.35922756,9.97879545 0.891427258,10.0023942 0.58834153,9.72841902 C0.57508012,9.71643133 0.562257592,9.70396689 0.549899199,9.69105024 C0.236773809,9.36378029 0.219589343,8.85347355 0.509988856,8.50588003 Z" id="Path-3" fill="url(#linearGradient-2)"></path>
            </g>
        </g>
    </g>
</svg>