<?xml version="1.0" encoding="UTF-8"?>
<svg width="20px" height="20px" viewBox="0 0 20 20" version="1.1" xmlns="http://www.w3.org/2000/svg" xmlns:xlink="http://www.w3.org/1999/xlink">
    <title>ThienXanh</title>
    <defs>
        <linearGradient x1="50%" y1="0%" x2="50%" y2="100%" id="linearGradient-1">
            <stop stop-color="#5FAF50" offset="0%"></stop>
            <stop stop-color="#6DD400" offset="100%"></stop>
        </linearGradient>
        <linearGradient x1="50%" y1="0%" x2="50%" y2="100%" id="linearGradient-2">
            <stop stop-color="#5FAF50" offset="0%"></stop>
            <stop stop-color="#6DD400" offset="100%"></stop>
        </linearGradient>
    </defs>
    <g id="Menu" stroke="none" stroke-width="1" fill="none" fill-rule="evenodd">
        <g id="ThienXanh" transform="translate(0.000000, 0.000000)">
            <rect id="Rectangle" fill="#000000" fill-rule="nonzero" opacity="0" x="0" y="0" width="19.9219" height="19.9316"></rect>
            <path d="M9.96094,19.9316 C15.4102,19.9316 19.9219,15.4199 19.9219,9.9707 C19.9219,4.53125 15.4004,0.00976562 9.95117,0.00976562 C4.51172,0.00976562 0,4.53125 0,9.9707 C0,15.4199 4.52148,19.9316 9.96094,19.9316 Z" id="Path" fill-opacity="0.85" fill="#FFFFFF" fill-rule="nonzero"></path>
            <g id="Group-2" transform="translate(4.822270, 5.260911)" fill="url(#linearGradient-1)" fill-rule="nonzero">
                <path d="M6.34763,3.05988896 L4.12113,3.60678896 C3.90623,3.65558896 3.82813,3.73368896 3.82813,4.08528896 L3.82813,7.35678896 C3.82813,8.72398896 2.91013,9.70048896 1.5625,9.70048896 C0.60546,9.70048896 0,9.11458896 0,8.30398896 C0,7.38608896 0.71289,6.86848896 1.58203,6.64388896 L2.45113,6.41928896 C2.92973,6.29228896 2.96873,6.20438896 2.96873,5.78448896 L2.96873,1.49738896 C2.96873,0.940748963 3.07613,0.843088963 3.54493,0.725908963 L6.30863,0.0423089629 C6.81643,-0.0846410371 6.94333,0.0813789629 6.94333,0.442698963 L6.94333,2.29818896 C6.94333,2.85478896 6.79683,2.95248896 6.34763,3.05988896 Z" id="Path-Copy"></path>
            </g>
            <g id="ThienXanh-Copy" transform="translate(9.912110, 8.869478)" fill="url(#linearGradient-2)" fill-rule="nonzero">
                <path d="M0.0893716589,0.160666541 C0.125125204,-0.0299986924 0.291952707,-0.0419145069 0.411123054,0.0772497388 C0.81628515,0.488372793 1.31677986,0.541997008 1.76365036,0.541997008 C2.17477341,0.541997008 2.68122908,0.42879372 3.13404224,0.42879372 C4.45680136,0.42879372 5.40414827,1.07824527 5.40414827,2.43077867 C5.40414827,2.55590388 5.39823002,2.68695953 5.38627149,2.77042514 C5.36247647,2.85974799 5.25521584,2.91337831 5.15985271,2.8180762 C3.95631275,1.73365777 2.77060074,2.43077867 1.78152713,1.56682416 C1.6742787,1.48340736 1.57894608,1.56086321 1.61469353,1.65024097 C2.09135661,2.89550154 3.93843598,2.23415248 5.15985271,3.35431835 C5.45186033,3.61649068 6,4.28976775 6,4.67109822 C6,4.91539377 5.82721154,5.09416149 5.62464879,5.09416149 C5.53526493,5.09416149 5.43398356,5.04644942 5.39823002,4.91539377 C5.21348303,4.33150056 5.05265309,3.93229332 4.69511765,3.5568811 L5.04667383,3.5568811 C4.90963892,3.80117665 4.33764322,4.51618653 3.12214472,4.51618653 C1.23336306,4.51618653 0,3.13387884 0,1.06036849 C0,0.810124187 0.0357474433,0.440709535 0.0893716589,0.160666541 Z" id="Path" transform="translate(3.000000, 2.547081) scale(-1, 1) translate(-3.000000, -2.547081) "></path>
            </g>
            <g id="TriLieu-Copy-2" transform="translate(9.912110, 8.869478)"></g>
        </g>
    </g>
</svg>