<?xml version="1.0" encoding="UTF-8"?>
<svg width="20px" height="20px" viewBox="0 0 20 20" version="1.1" xmlns="http://www.w3.org/2000/svg" xmlns:xlink="http://www.w3.org/1999/xlink">
    <title>ThoXanh</title>
    <defs>
        <linearGradient x1="50%" y1="0%" x2="50%" y2="100%" id="linearGradient-1">
            <stop stop-color="#5FAF50" offset="0%"></stop>
            <stop stop-color="#6DD400" offset="100%"></stop>
        </linearGradient>
    </defs>
    <g id="Menu" stroke="none" stroke-width="1" fill="none" fill-rule="evenodd">
        <g id="ThoXanh" fill-rule="nonzero">
            <rect id="Rectangle" fill="#000000" opacity="0" x="0" y="0" width="19.9219" height="19.9316"></rect>
            <path d="M9.96094,19.9316 C15.4102,19.9316 19.9219,15.4199 19.9219,9.9707 C19.9219,4.53125 15.4004,0.00976562 9.95117,0.00976562 C4.51172,0.00976562 0,4.53125 0,9.9707 C0,15.4199 4.52148,19.9316 9.96094,19.9316 Z" id="Path" fill-opacity="0.85" fill="#FFFFFF"></path>
            <g id="lungs.fill" transform="translate(4.000000, 5.000000)">
                <rect id="Rectangle" fill="#000000" opacity="0" x="0" y="0" width="11.9999875" height="9.03926539"></rect>
                <path d="M1.60975453,8.89891808 L3.41234402,8.54802733 C4.36407398,8.36380183 4.77634478,7.85504842 4.77634478,6.84629928 L4.77634478,1.49996026 C4.77634478,0.596473849 4.153553,0 3.21497752,0 C2.42113717,0 1.72817622,0.565777084 1.51765525,1.41224431 L0.0659358429,7.25418226 C-0.219144812,8.39452105 0.443118919,9.12257556 1.60975453,8.89891808 Z M10.3902374,8.89891808 C11.5568941,9.12257556 12.2191538,8.39452105 11.9340579,7.25418226 L10.4823502,1.41224431 C10.2674504,0.565777084 9.57887276,0 8.78502342,0 C7.84642548,0 7.2192414,0.596473849 7.2192414,1.49996026 L7.2192414,6.84629928 C7.2192414,7.85504842 7.63592696,8.36380183 8.58328258,8.54802733 L10.3902374,8.89891808 Z" id="Shape" fill="url(#linearGradient-1)"></path>
                <path d="M2.07904451,6.81998135 C1.89483698,6.85945824 1.69747497,6.73226989 1.65800257,6.5480893 C1.62291349,6.35950742 1.75010184,6.17088063 1.92992156,6.13580503 L3.3114691,5.83755014 L2.17991494,4.82444461 C2.03956762,4.70165755 2.02202533,4.46918401 2.1536015,4.32445337 C2.27640652,4.18410605 2.51324094,4.17971823 2.64920493,4.30252326 L4.15793633,5.66212722 L4.77634478,5.53058249 L4.77634478,6.24983441 L2.07904451,6.81998135 Z M7.2192414,6.24983441 L7.2192414,5.53058249 L7.83766781,5.66212722 L9.3420114,4.30252326 C9.47795742,4.17971823 9.71481878,4.18410605 9.84200713,4.32445337 C9.97359678,4.46918401 9.95603652,4.70165755 9.8156892,4.82444461 L8.67975171,5.83755014 L10.0613082,6.13580503 C10.2454888,6.17088063 10.3726772,6.35950742 10.3332003,6.5480893 C10.2981247,6.73226989 10.1007851,6.85945824 9.91655963,6.81998135 L7.2192414,6.24983441 Z" id="Shape" fill="#C6F594"></path>
                <path d="M7.2192414,5.53058249 L7.2192414,6.24983441 L5.99999373,5.98670004 L4.77634478,6.24983441 L4.77634478,5.53058249 L5.64474661,5.34195569 L5.64474661,0.482444461 C5.64474661,0.289466228 5.80701056,0.127189699 5.99999373,0.127189699 C6.19297691,0.127189699 6.35088448,0.289466228 6.35088448,0.482444461 L6.35088448,5.34195569 L7.2192414,5.53058249 Z" id="Path" fill="#6DD400"></path>
            </g>
        </g>
    </g>
</svg>