<?xml version="1.0" encoding="UTF-8"?>
<svg width="100px" height="25px" viewBox="0 0 100 25" version="1.1" xmlns="http://www.w3.org/2000/svg" xmlns:xlink="http://www.w3.org/1999/xlink">
    <title>toanthanicon</title>
    <defs>
        <linearGradient x1="50%" y1="0%" x2="50%" y2="100%" id="linearGradient-1">
            <stop stop-color="#98D888" offset="0%"></stop>
            <stop stop-color="#5FAF50" offset="100%"></stop>
        </linearGradient>
        <linearGradient x1="50%" y1="0%" x2="50%" y2="100%" id="linearGradient-2">
            <stop stop-color="#98D888" offset="0%"></stop>
            <stop stop-color="#5FAF50" offset="100%"></stop>
        </linearGradient>
        <linearGradient x1="50%" y1="0%" x2="50%" y2="100%" id="linearGradient-3">
            <stop stop-color="#98D888" offset="0%"></stop>
            <stop stop-color="#5FAF50" offset="100%"></stop>
        </linearGradient>
        <linearGradient x1="50%" y1="0%" x2="50%" y2="100%" id="linearGradient-4">
            <stop stop-color="#98D888" offset="0%"></stop>
            <stop stop-color="#5FAF50" offset="100%"></stop>
        </linearGradient>
        <linearGradient x1="50%" y1="0%" x2="50%" y2="100%" id="linearGradient-5">
            <stop stop-color="#98D888" offset="0%"></stop>
            <stop stop-color="#5FAF50" offset="100%"></stop>
        </linearGradient>
        <linearGradient x1="100%" y1="100%" x2="100%" y2="40.955501%" id="linearGradient-6">
            <stop stop-color="#98D888" offset="0%"></stop>
            <stop stop-color="#5FAF50" offset="100%"></stop>
        </linearGradient>
        <linearGradient x1="50%" y1="0%" x2="50%" y2="100%" id="linearGradient-7">
            <stop stop-color="#98D888" offset="0%"></stop>
            <stop stop-color="#5FAF50" offset="100%"></stop>
        </linearGradient>
    </defs>
    <g id="icon" stroke="none" stroke-width="1" fill="none" fill-rule="evenodd">
        <g id="toanthanicon">
            <g id="meditationicon48" transform="translate(37.264151, 0.471698)">
                <ellipse id="Oval" fill="url(#linearGradient-1)" cx="11.3207547" cy="2.83018868" rx="2.73259597" ry="2.83018868"></ellipse>
                <path d="M0.962243124,16.0488302 L3.44911141,13.0721747 L3.44911141,13.0721747 L4.49303946,11.201181 C5.84459735,8.77883377 8.4012698,7.27762803 11.1751615,7.27762803 C13.9473283,7.27762803 16.5006453,8.78362823 17.8418246,11.2097665 L18.8713716,13.0721747 L18.8713716,13.0721747 L21.5756415,16.0334298 C22.18792,16.7038928 22.2163293,17.7218062 21.6423991,18.4253754 C21.1658487,19.0095689 20.3059459,19.0968308 19.7217524,18.6202803 C19.6702237,18.5782462 19.6218353,18.532503 19.5769737,18.4834161 L16.3583322,14.9616201 L16.3583322,14.9616201 L15.1197597,12.4534307 L14.8094679,16.0562911 L20.3452029,18.8930283 C21.1670181,19.31416 21.5029257,20.3139188 21.1021211,21.1458369 C20.6733807,22.0357393 19.7162369,22.5439474 18.7388919,22.4006246 L11.5951416,21.3530292 L11.5951416,21.3530292 L4.32833552,22.388708 C3.27840916,22.5383455 2.25648715,21.9738664 1.82413369,21.0054619 C1.41576603,20.0907819 1.80061979,19.0167593 2.69697453,18.5695995 L7.73503068,16.0562911 L7.73503068,16.0562911 L7.41349483,12.4534307 L6.38272054,14.6040889 L3.08151461,18.2560561 C2.5645803,18.8279159 1.68193822,18.8724419 1.11007836,18.3555076 C1.08505683,18.3328893 1.06086338,18.3093715 1.03754566,18.2850005 C0.446743036,17.66751 0.414319515,16.7046671 0.962243124,16.0488302 Z" id="Path-3" fill="url(#linearGradient-2)"></path>
            </g>
            <g id="Group-19">
                <ellipse id="Oval" fill="url(#linearGradient-3)" cx="15.0566038" cy="2.77242973" rx="2.71698113" ry="2.77242973"></ellipse>
                <path d="M2.31200593,9.0239766 L11.7122307,9.0239766 L11.7122307,9.0239766 L11.7122307,14.9144631 L1.49178883,19.3920995 C0.657625816,19.7575513 0.259296222,20.7151717 0.588199546,21.5644099 C0.896351114,22.3600665 1.7911644,22.7552673 2.58682095,22.4471158 C2.61215816,22.4373029 2.63723209,22.4268233 2.66201658,22.4156879 L13.6778975,17.4663793 L13.6778975,17.4663793 L19.799906,17.4663793 L19.9147983,21.5236806 C19.9393871,22.3920062 20.6503882,23.0831587 21.519062,23.0831587 C22.3806833,23.0831587 23.0791653,22.3846767 23.0791653,21.5230554 L23.0791653,16.3635964 C23.0791653,15.2590269 22.1837348,14.3635964 21.0791653,14.3635964 L18.3289587,14.3635964 L18.3289587,14.3635964 L18.3289587,9.0239766 L27.5553558,9.0239766 C28.2281652,9.0239766 28.7735849,8.47855686 28.7735849,7.80574751 L28.7735849,7.80574751 L28.7735849,7.80574751 C28.7735849,7.22420018 28.3021476,6.75276292 27.7206003,6.75276292 L2.31200593,6.75276292 C1.68482759,6.75276292 1.17639909,7.26119142 1.17639909,7.88836976 C1.17639909,8.5155481 1.68482759,9.0239766 2.31200593,9.0239766 Z" id="Path-5" fill="url(#linearGradient-4)"></path>
            </g>
            <g id="pranayamaicon48v-copy-2" transform="translate(76.886792, 2.358491)" fill-rule="nonzero">
                <path d="M0.0657416349,10.0925504 L4.78111698,10.9252034 C4.77333731,11.05606 4.76939203,11.1879498 4.76939203,11.3207618 C4.76939203,14.7834533 7.45121972,17.6192359 10.849451,17.8610083 L10.8491523,22.6415237 C4.81557835,22.3940698 0,17.420265 0,11.3207618 C0,10.9057691 0.0222915614,10.4959873 0.0657416349,10.0925504 Z" id="pranayamaicon48-path" fill="#5FAF50"></path>
                <path d="M15.7613667,16.1416925 L19.6064774,19.0414421 C17.6507759,21.142925 14.9065133,22.4995085 11.8452477,22.6392321 L11.8449375,17.8570325 C13.3512493,17.7376826 14.7141633,17.1084159 15.7613667,16.1416925 Z" id="pranayamaicon48-path" fill="url(#linearGradient-5)"></path>
                <path d="M11.8452477,0.00229159499 C17.854049,0.276547814 22.6415094,5.23909208 22.6415094,11.3207618 C22.6415094,13.9451533 21.7500189,16.3611483 20.2535961,18.2819438 L16.4438023,15.4081144 C17.3377403,14.2872242 17.8721174,12.8664515 17.8721174,11.3207618 C17.8721174,7.87605085 15.2180689,5.05175505 11.8449375,4.78449123 L11.8452477,0.00229159499 Z" id="pranayamaicon48-path" fill="url(#linearGradient-6)"></path>
                <path d="M10.8491523,0 L10.849451,4.78051538 C7.93501396,4.98786745 5.54751703,7.10320547 4.92678835,9.88564325 L0.226223501,9.05582604 C1.24445422,4.03268983 5.58284509,0.215986117 10.8491523,0 Z" id="pranayamaicon48-path-copy-2" fill="url(#linearGradient-7)"></path>
            </g>
        </g>
    </g>
</svg>