<?xml version="1.0" encoding="UTF-8"?>
<svg width="20px" height="20px" viewBox="0 0 20 20" version="1.1" xmlns="http://www.w3.org/2000/svg" xmlns:xlink="http://www.w3.org/1999/xlink">
    <title>TrangChu</title>
    <defs>
        <linearGradient x1="50%" y1="0%" x2="50%" y2="100%" id="linearGradient-1">
            <stop stop-color="#5FAF50" offset="0%"></stop>
            <stop stop-color="#6DD400" offset="100%"></stop>
        </linearGradient>
    </defs>
    <g id="Menu" stroke="none" stroke-width="1" fill="none" fill-rule="evenodd">
        <g id="TrangChu" fill-rule="nonzero">
            <rect id="Rectangle" fill="#000000" opacity="0" x="0" y="0" width="19.9219" height="19.9316"></rect>
            <path d="M9.96094,19.9316 C15.4102,19.9316 19.9219,15.4199 19.9219,9.9707 C19.9219,4.53125 15.4004,0.00976562 9.95117,0.00976562 C4.51172,0.00976562 0,4.53125 0,9.9707 C0,15.4199 4.52148,19.9316 9.96094,19.9316 Z" id="Path" fill-opacity="0.85" fill="#FFFFFF"></path>
            <g id="music.note.house.fill" transform="translate(4.000000, 4.000000)" fill="url(#linearGradient-1)">
                <path d="M1.56850175,9.44746801 C1.56850175,10.1462432 1.9907887,10.5584866 2.69962806,10.5584866 L9.31043092,10.5584866 C10.019296,10.5584866 10.4365329,10.1462432 10.4365329,9.44746801 L10.4365329,5.46588031 L6.30416336,2.00209875 C6.11312499,1.84122704 5.88687501,1.84625654 5.70088158,2.00209875 L1.56850175,5.46588031 L1.56850175,9.44746801 Z M0,4.96314206 C0,5.16925862 0.16087171,5.36534193 0.43234285,5.36534193 C0.573104824,5.36534193 0.688731687,5.28992527 0.794304712,5.20447022 L5.82659317,0.981569808 C5.93716994,0.881026276 6.07291993,0.881026276 6.18349671,0.981569808 L11.2157697,5.20447022 C11.3163081,5.28992527 11.4319298,5.36534193 11.5727247,5.36534193 C11.8090131,5.36534193 12,5.21955355 12,4.97822539 C12,4.82740752 11.9497565,4.72686399 11.8441732,4.63637429 L6.61082345,0.237537376 C6.2387851,-0.0791791253 5.77629823,-0.0791791253 5.39926643,0.237537376 L0.16087171,4.63637429 C0.0502723837,4.72686399 0,4.8475152 0,4.96314206 Z M9.17473242,2.69585993 L10.4365329,3.76163373 L10.4365329,1.43904777 C10.4365329,1.21784788 10.2957895,1.07708899 10.0745844,1.07708899 L9.53668089,1.07708899 C9.3205208,1.07708899 9.17473242,1.21784788 9.17473242,1.43904777 L9.17473242,2.69585993 Z" id="Shape"></path>
            </g>
        </g>
    </g>
</svg>