<?xml version="1.0" encoding="UTF-8"?>
<svg width="20px" height="20px" viewBox="0 0 20 20" version="1.1" xmlns="http://www.w3.org/2000/svg" xmlns:xlink="http://www.w3.org/1999/xlink">
    <title>TriLieu</title>
    <defs>
        <linearGradient x1="50%" y1="0%" x2="50%" y2="100%" id="linearGradient-1">
            <stop stop-color="#5FAF50" offset="0%"></stop>
            <stop stop-color="#6DD400" offset="100%"></stop>
        </linearGradient>
    </defs>
    <g id="Menu" stroke="none" stroke-width="1" fill="none" fill-rule="evenodd">
        <g id="TriLieu" transform="translate(-0.000000, 0.000000)" fill-rule="nonzero">
            <rect id="Rectangle" fill="#000000" opacity="0" x="0" y="0" width="19.9219" height="19.9316"></rect>
            <path d="M9.96094,19.9219 C15.4102,19.9219 19.9219,15.4004 19.9219,9.96094 C19.9219,4.51172 15.4004,0 9.95117,0 C4.51172,0 0,4.51172 0,9.96094 C0,15.4004 4.52148,19.9219 9.96094,19.9219 Z" id="Path" fill-opacity="0.85" fill="#FFFFFF"></path>
            <path d="M5.05859,6.13281 C5.11719,5.82031 5.39062,5.80078 5.58594,5.99609 C6.25,6.66992 7.07031,6.75781 7.80273,6.75781 C8.47656,6.75781 9.30664,6.57227 10.0488,6.57227 C12.2168,6.57227 13.7695,7.63672 13.7695,9.85352 C13.7695,10.0586 13.7598,10.2734 13.7402,10.4102 C13.7012,10.5566 13.5254,10.6445 13.3691,10.4883 C11.3965,8.71094 9.45312,9.85352 7.83203,8.4375 C7.65625,8.30078 7.5,8.42773 7.55859,8.57422 C8.33984,10.6152 11.3672,9.53125 13.3691,11.3672 C13.8477,11.7969 14.7461,12.9004 14.7461,13.5254 C14.7461,13.9258 14.4629,14.2188 14.1309,14.2188 C13.9844,14.2188 13.8184,14.1406 13.7598,13.9258 C13.457,12.9688 13.1934,12.3145 12.6074,11.6992 L13.1836,11.6992 C12.959,12.0996 12.0215,13.2715 10.0293,13.2715 C6.93359,13.2715 4.91211,11.0059 4.91211,7.60742 C4.91211,7.19727 4.9707,6.5918 5.05859,6.13281 Z" id="Path" fill="url(#linearGradient-1)"></path>
        </g>
    </g>
</svg>