<?xml version="1.0" encoding="UTF-8"?>
<svg width="20px" height="20px" viewBox="0 0 20 20" version="1.1" xmlns="http://www.w3.org/2000/svg" xmlns:xlink="http://www.w3.org/1999/xlink">
    <title>YogaXanh</title>
    <defs>
        <linearGradient x1="50%" y1="0%" x2="50%" y2="100%" id="linearGradient-1">
            <stop stop-color="#5FAF50" offset="0%"></stop>
            <stop stop-color="#6DD400" offset="100%"></stop>
        </linearGradient>
    </defs>
    <g id="Menu" stroke="none" stroke-width="1" fill="none" fill-rule="evenodd">
        <g id="YogaXanh" fill-rule="nonzero">
            <rect id="Rectangle" fill="#000000" opacity="0" x="0" y="0" width="19.9219" height="19.9316"></rect>
            <path d="M9.96094,19.9316 C15.4102,19.9316 19.9219,15.4199 19.9219,9.9707 C19.9219,4.53125 15.4004,0.00976562 9.95117,0.00976562 C4.51172,0.00976562 0,4.53125 0,9.9707 C0,15.4199 4.52148,19.9316 9.96094,19.9316 Z" id="Path" fill-opacity="0.85" fill="#FFFFFF"></path>
            <g id="figure.strengthtraining.functional" transform="translate(4.000000, 2.000000)" fill="url(#linearGradient-1)">
                <path d="M4.65419057,12.1646491 C4.92522833,12.1037169 5.09201696,12.0373433 5.20321176,11.8712676 L6.73214198,9.67929558 C6.7599389,9.6405257 6.78079015,9.62391813 6.84333677,9.62391813 L10.5822573,9.62391813 L10.5822573,12.4303134 C10.5822573,12.7513553 10.901929,12.994914 11.2841545,12.994914 C11.6872311,12.994914 12,12.7513553 12,12.4303134 L12,9.12574782 C12,8.75488329 11.7497849,8.53348686 11.2633032,8.50027173 L8.11512057,8.27332055 L8.11512057,5.1237721 C8.11512057,4.50936016 7.57305929,4.00011436 6.62094718,4.00011436 L6.2873628,4.00011436 C5.72444315,4.00011436 5.29356242,4.07760878 4.73758845,4.40972043 L2.40249774,5.80460864 C1.99941394,6.03709189 2.02721086,6.50759048 2.43724745,6.72348885 L5.29356242,8.23460735 L5.29356242,8.37852069 L4.04956843,11.1239838 L0.519134025,11.898928 C0.143852124,11.9819658 -0.0785374674,12.2864001 0.0257073153,12.5853363 C0.136902182,12.9008234 0.491335682,13.0613443 0.894418772,12.9783065 L4.65419057,12.1646491 Z M4.04956843,6.2252902 L5.10592254,5.59427069 C5.1893133,5.54998574 5.29356242,5.58320087 5.29356242,5.66622736 L5.29356242,6.88400976 L4.04956843,6.2252902 Z M6.62094718,3.04 C7.4479518,3.04 8.12899768,2.35826206 8.12899768,1.50956411 C8.12899768,0.681738653 7.4479518,0 6.62094718,0 C5.77309131,0 5.09201696,0.681738653 5.09201696,1.50956411 C5.09201696,2.35826206 5.77309131,3.04 6.62094718,3.04 Z" id="Shape"></path>
            </g>
        </g>
    </g>
</svg>